<svg version="1.1" baseProfile="full" width="1506.25" height="472" viewbox="0 0 1506.25 472" xmlns="http://www.w3.org/2000/svg" xmlns:xlink="http://www.w3.org/1999/xlink" xmlns:ev="http://www.w3.org/2001/xml-events" style="font-weight:bold; font-size:12pt; font-family:'Calibri', Helvetica, sans-serif;;stroke-width:3;stroke-linejoin:round;stroke-linecap:round">
  <title >nomnoml</title>
  <desc >#.interface: fill=lightblue
[&lt;interface&gt;Weapon||tryHit(): boolean]
[&lt;interface&gt;Named|name: string|]
[&lt;interface&gt;Magic|kind: string|]
[&lt;interface&gt;BlackMagic||paintItBlack(): boolean]
[&lt;interface&gt;MagicWeapon&lt;MT&gt;|magic: MT|tryMagicHit(): boolean]
[&lt;interface&gt;BlackMagicWeapon||]
[Weapon]&lt;:--[Katana]
[Named]&lt;:--[Katana]
[Magic]&lt;:--[BlackMagic]
[Weapon]&lt;:--[MagicWeapon&lt;MT&gt;]
[MagicWeapon&lt;MT&gt;]&lt;:--[MagicKatana&lt;MT&gt;]
[MagicWeapon&lt;MT&gt;]&lt;:--[BlackMagicKatana]
[MagicWeapon&lt;MT&gt;]&lt;:--[BlackMagicWeapon]
[BaseWeapon|damage: number;attributes: string\[\]|]
[Katana|name: string|tryHit(): boolean]
[MagicKatana&lt;MT&gt;||tryMagicHit(): boolean]
[BlackMagicKatana||tryBlackMagicHit(): boolean]
[BaseWeapon]&lt;:-[Katana]
[Katana]&lt;:-[MagicKatana&lt;MT&gt;]
[MagicKatana&lt;MT&gt;]&lt;:-[BlackMagicKatana]
[Ninja|_weapon: Weapon|fight(): boolean]
[Viking&lt;WT&gt;|weapon: WT|fight(): boolean]
[UberViking&lt;WT&gt;||]
[VikingWithKatana||]
[Viking&lt;WT&gt;]&lt;:-[UberViking&lt;WT&gt;]
[Viking&lt;WT&gt;]&lt;:-[VikingWithKatana]</desc>
  <path d="M485.3 95 L545.5 126.5 L598.3 151.2 L598.3 151.2 " style="stroke:#33322E;fill:none;stroke-dasharray:6 6;"></path>
  <path d="M499.6 96.5 L497.2 101.2 L494.7 105.9 L485.3 95 Z" style="stroke:#33322E;fill:#eee8d5;stroke-dasharray:none;"></path>
  <path d="M662.5 95 L662.5 126.5 L669.9 146.5 L669.9 146.5 " style="stroke:#33322E;fill:none;stroke-dasharray:6 6;"></path>
  <path d="M667.8 108.3 L662.5 108.3 L657.2 108.3 L662.5 95 Z" style="stroke:#33322E;fill:#eee8d5;stroke-dasharray:none;"></path>
  <path d="M131 95 L131 126.5 L131 158 L131 158 " style="stroke:#33322E;fill:none;stroke-dasharray:6 6;"></path>
  <path d="M136.3 108.3 L131 108.3 L125.7 108.3 L131 95 Z" style="stroke:#33322E;fill:#eee8d5;stroke-dasharray:none;"></path>
  <path d="M410.6 95 L403.5 126.5 L403.5 146.5 L403.5 146.5 " style="stroke:#33322E;fill:none;stroke-dasharray:6 6;"></path>
  <path d="M412.9 109.2 L407.7 108 L402.5 106.8 L410.6 95 Z" style="stroke:#33322E;fill:#eee8d5;stroke-dasharray:none;"></path>
  <path d="M488.8 239.5 L525.5 259.5 L575.2 279.5 L575.2 279.5 " style="stroke:#33322E;fill:none;stroke-dasharray:6 6;"></path>
  <path d="M503.1 241.2 L500.5 245.9 L498 250.6 L488.8 239.5 Z" style="stroke:#33322E;fill:#eee8d5;stroke-dasharray:none;"></path>
  <path d="M403.5 239.5 L403.5 259.5 L403.5 314.5 L403.5 314.5 L403.5 369.5 L403.5 369.5 L469.4 389.5 L469.4 389.5 " style="stroke:#33322E;fill:none;stroke-dasharray:6 6;"></path>
  <path d="M408.8 252.8 L403.5 252.8 L398.2 252.8 L403.5 239.5 Z" style="stroke:#33322E;fill:#eee8d5;stroke-dasharray:none;"></path>
  <path d="M313.6 239.5 L275 259.5 L275 291 L275 291 " style="stroke:#33322E;fill:none;stroke-dasharray:6 6;"></path>
  <path d="M304.3 250.4 L301.8 245.6 L299.4 240.9 L313.6 239.5 Z" style="stroke:#33322E;fill:#eee8d5;stroke-dasharray:none;"></path>
  <path d="M870.5 102.5 L870.5 126.5 L776.3 160.7 L776.3 160.7 " style="stroke:#33322E;fill:none;stroke-dasharray:none;"></path>
  <path d="M875.8 115.8 L870.5 115.8 L865.2 115.8 L870.5 102.5 Z" style="stroke:#33322E;fill:#eee8d5;stroke-dasharray:none;"></path>
  <path d="M687.3 239.5 L687.3 259.5 L678.2 279.5 L678.2 279.5 " style="stroke:#33322E;fill:none;stroke-dasharray:none;"></path>
  <path d="M692.6 252.8 L687.3 252.8 L681.9 252.8 L687.3 239.5 Z" style="stroke:#33322E;fill:#eee8d5;stroke-dasharray:none;"></path>
  <path d="M662.3 349.5 L662.3 369.5 L634.1 389.5 L634.1 389.5 " style="stroke:#33322E;fill:none;stroke-dasharray:none;"></path>
  <path d="M667.6 362.8 L662.3 362.8 L656.9 362.8 L662.3 349.5 Z" style="stroke:#33322E;fill:#eee8d5;stroke-dasharray:none;"></path>
  <path d="M1225.4 106.5 L1191 126.5 L1191 169.5 L1191 169.5 " style="stroke:#33322E;fill:none;stroke-dasharray:none;"></path>
  <path d="M1216.6 117.8 L1213.9 113.2 L1211.2 108.6 L1225.4 106.5 Z" style="stroke:#33322E;fill:#eee8d5;stroke-dasharray:none;"></path>
  <path d="M1376.6 106.5 L1407.3 126.5 L1407.3 169.5 L1407.3 169.5 " style="stroke:#33322E;fill:none;stroke-dasharray:none;"></path>
  <path d="M1390.7 109.3 L1387.8 113.8 L1384.9 118.3 L1376.6 106.5 Z" style="stroke:#33322E;fill:#eee8d5;stroke-dasharray:none;"></path>
  <rect x="329.5" y="25.5" height="70" width="178" style="stroke:#33322E;fill:lightblue;stroke-dasharray:none;"></rect>
  <text x="418.5" y="47" style="fill: #33322E;font-weight:normal;text-anchor: middle;">Weapon</text>
  <path d="M329.5 56.5 L507.5 56.5" style="stroke:#33322E;fill:none;stroke-dasharray:none;"></path>
  <path d="M329.5 64.5 L507.5 64.5" style="stroke:#33322E;fill:none;stroke-dasharray:none;"></path>
  <text x="337.5" y="86" style="fill: #33322E;font-weight:normal;">tryHit(): boolean</text>
  <rect x="597.5" y="25.5" height="70" width="130" style="stroke:#33322E;fill:lightblue;stroke-dasharray:none;"></rect>
  <text x="662.5" y="47" style="fill: #33322E;font-weight:normal;text-anchor: middle;">Named</text>
  <path d="M597.5 56.5 L727.5 56.5" style="stroke:#33322E;fill:none;stroke-dasharray:none;"></path>
  <text x="605.5" y="78" style="fill: #33322E;font-weight:normal;">name: string</text>
  <path d="M597.5 87.5 L727.5 87.5" style="stroke:#33322E;fill:none;stroke-dasharray:none;"></path>
  <rect x="66.5" y="25.5" height="70" width="130" style="stroke:#33322E;fill:lightblue;stroke-dasharray:none;"></rect>
  <text x="131.5" y="47" style="fill: #33322E;font-weight:normal;text-anchor: middle;">Magic</text>
  <path d="M66.5 56.5 L196.5 56.5" style="stroke:#33322E;fill:none;stroke-dasharray:none;"></path>
  <text x="74.5" y="78" style="fill: #33322E;font-weight:normal;">kind: string</text>
  <path d="M66.5 87.5 L196.5 87.5" style="stroke:#33322E;fill:none;stroke-dasharray:none;"></path>
  <rect x="13.5" y="158.5" height="70" width="235" style="stroke:#33322E;fill:lightblue;stroke-dasharray:none;"></rect>
  <text x="131" y="180" style="fill: #33322E;font-weight:normal;text-anchor: middle;">BlackMagic</text>
  <path d="M13.5 189.5 L248.5 189.5" style="stroke:#33322E;fill:none;stroke-dasharray:none;"></path>
  <path d="M13.5 197.5 L248.5 197.5" style="stroke:#33322E;fill:none;stroke-dasharray:none;"></path>
  <text x="21.5" y="219" style="fill: #33322E;font-weight:normal;">paintItBlack(): boolean</text>
  <rect x="288.5" y="146.5" height="93" width="230" style="stroke:#33322E;fill:lightblue;stroke-dasharray:none;"></rect>
  <text x="403.5" y="168" style="fill: #33322E;font-weight:normal;text-anchor: middle;">MagicWeapon&lt;MT&gt;</text>
  <path d="M288.5 177.5 L518.5 177.5" style="stroke:#33322E;fill:none;stroke-dasharray:none;"></path>
  <text x="296.5" y="199" style="fill: #33322E;font-weight:normal;">magic: MT</text>
  <path d="M288.5 208.5 L518.5 208.5" style="stroke:#33322E;fill:none;stroke-dasharray:none;"></path>
  <text x="296.5" y="230" style="fill: #33322E;font-weight:normal;">tryMagicHit(): boolean</text>
  <rect x="186.5" y="291.5" height="47" width="177" style="stroke:#33322E;fill:lightblue;stroke-dasharray:none;"></rect>
  <text x="275" y="313" style="fill: #33322E;font-weight:normal;text-anchor: middle;">BlackMagicWeapon</text>
  <path d="M186.5 322.5 L363.5 322.5" style="stroke:#33322E;fill:none;stroke-dasharray:none;"></path>
  <path d="M186.5 330.5 L363.5 330.5" style="stroke:#33322E;fill:none;stroke-dasharray:none;"></path>
  <rect x="767.5" y="17.5" height="85" width="206" style="stroke:#33322E;fill:#eee8d5;stroke-dasharray:none;"></rect>
  <text x="870.5" y="39" style="fill: #33322E;text-anchor: middle;">BaseWeapon</text>
  <path d="M767.5 48.5 L973.5 48.5" style="stroke:#33322E;fill:none;stroke-dasharray:none;"></path>
  <text x="775.5" y="70" style="fill: #33322E;font-weight:normal;">damage: number</text>
  <text x="775.5" y="85" style="fill: #33322E;font-weight:normal;">attributes: string[]</text>
  <path d="M767.5 94.5 L973.5 94.5" style="stroke:#33322E;fill:none;stroke-dasharray:none;"></path>
  <rect x="598.5" y="146.5" height="93" width="178" style="stroke:#33322E;fill:#eee8d5;stroke-dasharray:none;"></rect>
  <text x="687.5" y="168" style="fill: #33322E;text-anchor: middle;">Katana</text>
  <path d="M598.5 177.5 L776.5 177.5" style="stroke:#33322E;fill:none;stroke-dasharray:none;"></path>
  <text x="606.5" y="199" style="fill: #33322E;font-weight:normal;">name: string</text>
  <path d="M598.5 208.5 L776.5 208.5" style="stroke:#33322E;fill:none;stroke-dasharray:none;"></path>
  <text x="606.5" y="230" style="fill: #33322E;font-weight:normal;">tryHit(): boolean</text>
  <rect x="547.5" y="279.5" height="70" width="230" style="stroke:#33322E;fill:#eee8d5;stroke-dasharray:none;"></rect>
  <text x="662.5" y="301" style="fill: #33322E;text-anchor: middle;">MagicKatana&lt;MT&gt;</text>
  <path d="M547.5 310.5 L777.5 310.5" style="stroke:#33322E;fill:none;stroke-dasharray:none;"></path>
  <path d="M547.5 318.5 L777.5 318.5" style="stroke:#33322E;fill:none;stroke-dasharray:none;"></path>
  <text x="555.5" y="340" style="fill: #33322E;font-weight:normal;">tryMagicHit(): boolean</text>
  <rect x="446.5" y="389.5" height="70" width="277" style="stroke:#33322E;fill:#eee8d5;stroke-dasharray:none;"></rect>
  <text x="585" y="411" style="fill: #33322E;text-anchor: middle;">BlackMagicKatana</text>
  <path d="M446.5 420.5 L723.5 420.5" style="stroke:#33322E;fill:none;stroke-dasharray:none;"></path>
  <path d="M446.5 428.5 L723.5 428.5" style="stroke:#33322E;fill:none;stroke-dasharray:none;"></path>
  <text x="454.5" y="450" style="fill: #33322E;font-weight:normal;">tryBlackMagicHit(): boolean</text>
  <rect x="1013.5" y="13.5" height="93" width="168" style="stroke:#33322E;fill:#eee8d5;stroke-dasharray:none;"></rect>
  <text x="1097.5" y="35" style="fill: #33322E;text-anchor: middle;">Ninja</text>
  <path d="M1013.5 44.5 L1181.5 44.5" style="stroke:#33322E;fill:none;stroke-dasharray:none;"></path>
  <text x="1021.5" y="66" style="fill: #33322E;font-weight:normal;">_weapon: Weapon</text>
  <path d="M1013.5 75.5 L1181.5 75.5" style="stroke:#33322E;fill:none;stroke-dasharray:none;"></path>
  <text x="1021.5" y="97" style="fill: #33322E;font-weight:normal;">fight(): boolean</text>
  <rect x="1221.5" y="13.5" height="93" width="168" style="stroke:#33322E;fill:#eee8d5;stroke-dasharray:none;"></rect>
  <text x="1305.5" y="35" style="fill: #33322E;text-anchor: middle;">Viking&lt;WT&gt;</text>
  <path d="M1221.5 44.5 L1389.5 44.5" style="stroke:#33322E;fill:none;stroke-dasharray:none;"></path>
  <text x="1229.5" y="66" style="fill: #33322E;font-weight:normal;">weapon: WT</text>
  <path d="M1221.5 75.5 L1389.5 75.5" style="stroke:#33322E;fill:none;stroke-dasharray:none;"></path>
  <text x="1229.5" y="97" style="fill: #33322E;font-weight:normal;">fight(): boolean</text>
  <rect x="1114.5" y="169.5" height="47" width="154" style="stroke:#33322E;fill:#eee8d5;stroke-dasharray:none;"></rect>
  <text x="1191.5" y="191" style="fill: #33322E;text-anchor: middle;">UberViking&lt;WT&gt;</text>
  <path d="M1114.5 200.5 L1268.5 200.5" style="stroke:#33322E;fill:none;stroke-dasharray:none;"></path>
  <path d="M1114.5 208.5 L1268.5 208.5" style="stroke:#33322E;fill:none;stroke-dasharray:none;"></path>
  <rect x="1320.5" y="169.5" height="47" width="173" style="stroke:#33322E;fill:#eee8d5;stroke-dasharray:none;"></rect>
  <text x="1407" y="191" style="fill: #33322E;text-anchor: middle;">VikingWithKatana</text>
  <path d="M1320.5 200.5 L1493.5 200.5" style="stroke:#33322E;fill:none;stroke-dasharray:none;"></path>
  <path d="M1320.5 208.5 L1493.5 208.5" style="stroke:#33322E;fill:none;stroke-dasharray:none;"></path>
</svg>